<svg width="3000" height="1200" xmlns="http://www.w3.org/2000/svg" class="icon">
 <defs>
  <style type="text/css"/>
 </defs>
 <g>
  <title>background</title>
  <rect x="-1" y="-1" width="3002" height="1202" id="canvas_background" fill="none"/>
 </g>
 <g>
  <title>Layer 1</title>
  <path d="m251.44694,847.71843c0,34.61091 27.33034,62.79116 60.96847,62.79116l44.01627,0a60.83534,60.83534 0 0 0 -2.30398,16.48627l0,125.52601c0,32.81893 25.88139,59.46831 57.77361,59.46831c31.90758,0 57.78384,-26.64426 57.78384,-59.46831l0,-125.51577c0,-5.72924 -0.84479,-11.26391 -2.30398,-16.49139l107.29384,0a60.83534,60.83534 0 0 0 -2.30398,16.48627l0,125.52601c0,32.81893 25.87627,59.46831 57.77361,59.46831s57.78384,-26.64426 57.78385,-59.46831l0,-125.52089c0,-5.72924 -0.8448,-11.26391 -2.31935,-16.49139l44.01628,0c33.65349,0 60.97358,-28.16489 60.97358,-62.79116l0,-436.01051l-539.17766,0l0,436.00539l0.0256,0zm-96.33201,-436.00539c-31.90757,0 -57.76848,26.61354 -57.76848,59.44783l0,254.3288c0,32.83429 25.86091,59.44783 57.7736,59.44783c31.89222,0 57.76849,-26.61354 57.76849,-59.44783l0,-254.31344c0,-32.85477 -25.87627,-59.46831 -57.76849,-59.46831l-0.00512,0.00512zm731.72904,0c-31.91269,0 -57.75312,26.61354 -57.75312,59.44783l0,254.3288c0,32.83429 25.84043,59.44783 57.75312,59.44783s57.75313,-26.61354 57.75313,-59.44783l0,-254.31344c0,-32.85477 -25.84555,-59.46831 -57.75313,-59.46831l0,0.00512zm-233.296,-237.96541l10.84407,-16.74226l10.68535,-16.51186l24.02284,-37.0685c2.94398,-4.56188 1.72543,-10.70071 -2.65725,-13.74197a9.4668,9.4668 0 0 0 -13.38358,2.74942l-25.72266,39.74623l-10.84408,16.71155l-10.97207,16.94194c-34.80035,-13.88533 -73.60451,-21.67278 -114.54882,-21.67278c-40.92894,0 -79.74846,7.78745 -114.5181,21.65742l-10.95671,-16.94194l-10.81335,-16.71155l-25.75851,-39.74623a9.47192,9.47192 0 0 0 -13.36821,-2.74942c-4.40316,3.03614 -5.61659,9.18009 -2.65726,13.73685l23.99213,37.07362l10.70071,16.50674l10.84407,16.74226c-81.71453,39.1728 -137.01008,113.38659 -137.01008,198.33182l539.1367,0c0.02048,-84.92987 -55.27506,-159.13854 -136.98959,-198.31134l-0.0256,0zm-248.08757,119.05951c-15.96403,0 -28.8868,-13.32213 -28.8868,-29.7316s12.92277,-29.70088 28.8868,-29.70088c15.94867,0 28.8868,13.29142 28.8868,29.70088s-12.91253,29.7316 -28.86632,29.7316l-0.02048,0zm479.15639,-119.05951c-15.95891,0 -28.8868,-13.32213 -28.8868,-29.73159s12.92789,-29.70088 28.8868,-29.70088s28.87145,13.29141 28.87145,29.70088s-12.90742,29.73159 -28.87145,29.73159z" fill="#272636" id="svg_1"/>
  <text font-style="normal" opacity="0.8" font-weight="bold" stroke="null" transform="matrix(27.64308353877254,0,0,32.570464114959854,-86892.5763356676,-27322.90862868692) " xml:space="preserve" text-anchor="start" font-family="'Trebuchet MS', Gadget, sans-serif" font-size="24" id="svg_2" y="865.91854" x="3180.46014" fill-opacity="null" stroke-opacity="null" stroke-width="0" fill="#000000">Young</text>
 </g>
</svg>